HIERARCHY
ROOT Hips
{
  OFFSET -125.316 89.8521 -57.488
  CHANNELS 6 Xposition Yposition Zposition Zrotation Xrotation Yrotation
  JOINT RightUpLeg
  {
    OFFSET -8.9458 -8.66707 0.101652
    CHANNELS 3 Zrotation Xrotation Yrotation
    JOINT RightLeg
    {
      OFFSET 0 -44.4227 1.3727
      CHANNELS 3 Zrotation Xrotation Yrotation
      JOINT RightFoot
      {
        OFFSET 0.253549 -42.0924 -1.46059
        CHANNELS 3 Zrotation Xrotation Yrotation
        JOINT RightToes
        {
          OFFSET 0.04 -4.41509 8.4991
          CHANNELS 3 Zrotation Xrotation Yrotation
          End Site
          {
            OFFSET -0.08 -0.137448 9.77979
          }
        }
      }
    }
  }
  JOINT Spine
  {
    OFFSET 0 11.8905 0
    CHANNELS 3 Zrotation Xrotation Yrotation
    JOINT Spine1
    {
      OFFSET 0 25.6574 0.127663
      CHANNELS 3 Zrotation Xrotation Yrotation
      JOINT HEad
      {
        OFFSET 0 8.73416 0.011341
        CHANNELS 3 Zrotation Xrotation Yrotation
        End Site
        {
          OFFSET -0.29 12.7742 2.51395
        }
      }
      JOINT LeftShoulder1
      {
        OFFSET 8.99 -0.362252 -0.22
        CHANNELS 3 Zrotation Xrotation Yrotation
        JOINT LeftArm
        {
          OFFSET 10.2827 -0.00338 0.322123
          CHANNELS 3 Zrotation Xrotation Yrotation
          JOINT LeftForeArm
          {
            OFFSET 32.7669 0.099144 -1.42434
            CHANNELS 3 Zrotation Xrotation Yrotation
            JOINT LeftHand
            {
              OFFSET 27.5643 0.085362 1.02216
              CHANNELS 3 Zrotation Xrotation Yrotation
              End Site
              {
                OFFSET 16.7443 -0.6 1.50291
              }
            }
          }
        }
      }
      JOINT RightShoulder
      {
        OFFSET -8.99 -0.362252 -0.22
        CHANNELS 3 Zrotation Xrotation Yrotation
        JOINT RightArm
        {
          OFFSET -10.2827 -0.00338 0.322123
          CHANNELS 3 Zrotation Xrotation Yrotation
          JOINT RightForeArm
          {
            OFFSET -32.8971 0.099144 -1.42434
            CHANNELS 3 Zrotation Xrotation Yrotation
            JOINT RightHand
            {
              OFFSET -27.4921 0.085362 1.02216
              CHANNELS 3 Zrotation Xrotation Yrotation
              End Site
              {
                OFFSET -16.6312 -0.6 1.50291
              }
            }
          }
        }
      }
    }
  }
  JOINT LeftUpLeg
  {
    OFFSET 8.9458 -8.66707 0.101652
    CHANNELS 3 Zrotation Xrotation Yrotation
    JOINT LeftLeg
    {
      OFFSET 0 -44.4227 1.3727
      CHANNELS 3 Zrotation Xrotation Yrotation
      JOINT LeftFoot
      {
        OFFSET -0.253549 -42.0924 -1.46059
        CHANNELS 3 Zrotation Xrotation Yrotation
        JOINT LeftToes
        {
          OFFSET -0.04 -4.41509 8.4991
          CHANNELS 3 Zrotation Xrotation Yrotation
          End Site
          {
            OFFSET 0.08 -0.047448 9.77979
          }
        }
      }
    }
  }
}
MOTION
Frames:	16
Frame Time:	0.0166667
-125.316 89.8521 -57.488 -15.0668 -4.24701 -45.223 -5.76851 13.4566 8.42321 8.70398 25.5357 6.37801 10.3015 -3.45684 -0.524426 -28.4455 -26.4318 -4.98045 1.82354 11.4856 3.04098 4.35773 22.9532 5.35374 2.40271 -16.7966 19.3015 1.59028e-015 0 -0 -70.4749 -36.7693 -31.7505 -17.0372 36.9703 -77.7383 13.009 7.61156 -16.9227 21.1128 5.77416 22.1883 59.4756 -19.6691 69.3966 7.79103 49.4774 133.486 6.65824 6.32297 -56.3766 17.4079 -19.6151 -5.18398 -8.61247 53.9242 10.6374 -10.5616 -2.9703 0.436957 -4.64026 -16.1927 -4.3025 
-125.286 89.2052 -57.4 -16.1532 -3.77868 -46.0748 -4.49652 14.7537 9.4764 7.96873 24.4393 6.15943 8.78952 -5.79836 -0.303439 -26.8779 -25.2555 -4.08204 2.25317 11.6709 3.15854 5.17678 23.3774 5.59981 2.22883 -17.7731 19.5354 -4.77083e-015 0 1.59028e-014 -71.3444 -36.0531 -29.6677 -15.1997 36.6187 -82.8952 13.1237 7.59774 -16.8533 21.5159 5.80644 21.9529 59.6227 -18.6547 70.4986 6.64683 48.7053 134.495 6.98619 6.10816 -57.0333 18.8959 -21.2252 -5.03492 -8.89207 57.2758 10.4261 -12.8232 0.804765 0.930562 -5.96347 -19.4033 -7.10582 
-125.207 88.9001 -57.2027 -16.7483 -3.54006 -46.8273 -3.67934 15.474 9.86761 6.79638 23.9994 6.55596 8.26267 -7.37883 -0.190348 -25.5093 -24.1818 -3.4401 2.45043 11.8983 3.11509 5.78864 23.8365 5.4371 2.11935 -18.8486 20.1363 -0 -6.36111e-015 -0 -71.4217 -34.9578 -26.3425 -13.4466 35.8479 -88.0894 13.1808 7.56092 -17.0863 22.0403 5.92273 21.9533 58.91 -17.6858 70.2465 5.56304 47.7881 135.79 7.0214 6.09027 -57.0386 20.1788 -23.2683 -4.24431 -8.62965 60.2443 8.7226 -16.4384 7.13743 2.07052 -7.46898 -22.1455 -11.0333 
-125.122 88.9323 -56.8428 -16.7407 -3.62106 -47.6186 -3.82976 15.5758 10.0569 5.90528 24.0853 7.33726 8.52889 -7.81731 -0.160937 -24.854 -23.649 -3.30465 2.3425 12.1104 2.97445 6.0307 24.2049 5.01191 2.06263 -19.7657 20.9776 8.82781e-032 -1.59028e-015 3.18055e-015 -70.5631 -33.5419 -22.2666 -12.1517 34.992 -92.4884 13.0931 7.51411 -17.6559 22.7609 6.11673 22.0854 57.2179 -16.8413 68.4729 4.83038 46.7216 137.086 6.62393 6.34912 -56.2576 21.1599 -25.3321 -2.63794 -7.95323 62.474 5.79609 -21.166 14.3231 3.98079 -8.17365 -22.693 -14.3281 
-125.027 89.2585 -56.312 -16.2317 -4.02524 -48.6389 -5.03526 15.026 10.3572 5.60457 24.7143 8.20161 9.31427 -6.89246 -0.229657 -25.1895 -23.9043 -3.76559 1.91714 12.2797 2.8463 5.86282 24.4436 4.55982 2.00764 -20.2947 21.9292 -1.59028e-015 -3.18055e-015 3.18055e-015 -68.783 -31.8871 -18.1328 -11.5743 34.3192 -95.5073 12.6803 7.50737 -18.4634 23.6277 6.30939 22.0795 54.7105 -15.9393 65.4567 4.588 45.5022 137.981 5.78274 6.86952 -54.6524 21.8752 -26.9743 -0.47833 -7.42193 63.8315 2.18742 -26.3487 20.3455 6.37611 -7.40131 -20.5986 -15.2558 
-124.881 89.8182 -55.6402 -15.4181 -4.67263 -49.994 -6.94699 13.759 10.6487 5.60575 26.0418 9.13651 10.4878 -4.65762 -0.428905 -26.4312 -24.8505 -4.79767 1.25215 12.4029 2.799 5.35854 24.5781 4.25348 1.86969 -20.3629 22.9182 0 0 -0 -66.1831 -30.1776 -14.5304 -11.8603 33.887 -96.9098 11.649 7.61794 -19.4497 24.4349 6.38823 21.7037 51.7685 -14.5873 61.7864 4.7779 44.0868 138.212 4.67977 7.50955 -52.4638 22.3768 -27.9133 1.67199 -7.65586 64.2678 -1.61604 -30.9881 23.8766 8.52932 -5.62295 -16.7277 -13.9652 
-124.646 90.5446 -54.8664 -14.4873 -5.42584 -51.7066 -9.04901 11.6766 10.5612 5.31079 28.1976 10.3366 12.126 -1.00807 -0.835727 -28.671 -26.4784 -6.40987 0.494791 12.4692 2.81093 4.64492 24.6233 4.10899 1.57251 -20.019 24.0278 3.18055e-015 -3.18055e-015 -3.18055e-015 -62.8162 -28.9593 -11.6532 -13.0962 33.6833 -96.7174 9.70393 7.92589 -20.6865 24.9721 6.31883 21.0249 48.8253 -12.4945 58.1036 5.24439 42.4947 137.723 3.58549 8.09721 -50.1596 22.6923 -28.0506 3.28732 -8.79013 63.6963 -5.31092 -34.0808 24.6889 9.68658 -3.80808 -12.5023 -12.0849 
-124.307 91.3598 -54.0217 -13.5877 -6.13273 -53.813 -10.9081 8.72787 9.84487 4.11921 31.0484 11.9397 14.6107 4.70772 -1.67241 -32.7517 -29.2659 -8.63238 -0.187721 12.4533 2.81377 3.84028 24.5598 4.05235 1.0602 -19.3442 25.4728 -0 0 3.18055e-015 -58.6594 -29.0549 -9.30492 -15.2628 33.7523 -95.0458 6.84714 8.46568 -22.3006 25.1773 6.19069 20.4075 46.1938 -9.76602 54.9036 5.85411 40.9219 136.562 2.66754 8.55144 -48.1306 22.8769 -27.3699 4.15896 -10.2744 62.0235 -8.4064 -35.017 23.5698 9.62539 -2.65524 -9.5509 -11.1459 
-123.878 92.1359 -53.1414 -12.8313 -6.69295 -56.3762 -12.2577 5.01767 8.53289 1.49657 34.0998 13.8828 18.9723 13.3917 -3.53194 -40.424 -34.1325 -11.361 -0.686663 12.3458 2.77733 3.02254 24.382 4.04166 0.292917 -18.4406 27.414 -4.77083e-015 -6.36111e-015 -0 -53.7388 -31.041 -7.1855 -18.2724 34.0905 -91.8894 3.571 9.17784 -24.4057 25.1306 6.13194 20.2317 44.0096 -6.87508 52.4331 6.53794 39.676 134.802 1.93113 8.88854 -46.4645 23.0196 -25.9048 4.40509 -11.2703 59.2942 -9.8975 -33.8583 21.9205 8.79161 -2.53792 -9.22602 -11.6599 
-123.406 92.6789 -52.2888 -12.2959 -7.11907 -59.3919 -12.985 0.925409 6.91233 -2.91358 36.6339 16.0663 27.0289 24.9392 -7.75396 -53.3005 -41.4672 -14.7822 -1.07178 12.1795 2.74223 2.22844 24.1374 4.08407 -0.717451 -17.4395 29.8304 1.59028e-015 7.95139e-016 3.18055e-015 -48.2008 -34.8922 -5.12664 -22.1343 34.433 -86.9799 0.551272 9.94453 -27.0399 24.9632 6.21929 20.6728 42.303 -4.39645 50.6928 7.27921 39.0269 132.528 1.33189 9.14617 -45.0132 23.1881 -23.783 4.21971 -11.391 55.8023 -8.62955 -30.9818 20.8703 7.71163 -3.51293 -11.6555 -13.0692 
-122.962 92.8544 -51.501 -12.0751 -7.45792 -62.6769 -12.9746 -2.8979 5.49809 -8.74923 38.1977 19.0257 40.172 36.3999 -15.967 -69.4974 -49.2686 -19.3499 -1.4185 12.0026 2.72004 1.51437 23.9024 4.14398 -1.87635 -16.461 32.5709 1.59028e-015 7.95139e-016 3.18055e-015 -42.2976 -40.0777 -3.17018 -26.8281 34.0984 -79.9528 -1.85391 10.6812 -30.0498 24.7785 6.46463 21.7044 41.053 -2.73398 49.5586 8.09324 39.0916 129.814 0.84389 9.34663 -43.5934 23.444 -21.1422 3.53707 -10.9705 51.881 -3.95088 -26.5436 20.5771 6.47903 -5.14624 -15.5174 -14.2711 
-122.58 92.6747 -50.6424 -12.2806 -7.62235 -65.842 -12.0688 -5.93171 4.94368 -14.6105 39.1515 23.7524 56.626 42.9577 -26.9359 -82.9319 -54.9243 -23.2257 -1.4822 11.8655 2.58457 1.02255 23.7392 4.06694 -3.03858 -15.5705 35.4685 -1.59028e-015 -3.97569e-015 3.18055e-015 -36.4325 -45.8161 -1.65475 -31.8607 32.0377 -70.7597 -3.69921 11.3687 -33.0755 24.6529 6.84247 23.1756 40.17 -1.99343 48.9326 9.03404 39.8352 126.703 0.403692 9.51837 -42.0611 23.8701 -18.1561 1.95559 -10.6606 47.8156 3.84925 -20.8202 20.1183 4.93786 -6.30411 -18.4237 -13.7502 
-122.315 92.2654 -49.7234 -12.8977 -7.55857 -68.4487 -10.4176 -7.86036 5.6136 -18.7947 39.9496 29.3161 70.6613 43.8148 -35.5901 -90.6591 -58.2817 -24.9378 -1.1694 11.7797 2.24102 0.88886 23.6483 3.60081 -4.06049 -14.7426 38.4133 -7.95139e-016 -3.97569e-015 -9.54166e-015 -31.949 -48.9327 -1.92044 -34.8715 24.991 -61.6075 -5.40729 12.0739 -35.4178 24.7254 7.33288 24.8779 39.4703 -2.04724 48.7533 10.2185 41.1477 123.206 -0.0963323 9.69766 -40.2836 24.512 -14.9717 -0.905243 -10.7178 43.5368 13.2536 -15.2069 18.6286 3.36293 -5.73852 -17.8742 -10.2844 
-122.237 91.6304 -48.7751 -13.7734 -7.36318 -70.0299 -8.65551 -8.49078 7.20891 -20.3652 40.8916 32.8779 78.5836 42.5242 -39.6542 -95.8027 -59.8305 -27.1445 -0.717094 11.7153 1.60539 1.10818 23.55 2.47053 -4.82059 -13.8236 41.3809 -3.08973e-031 -5.56597e-015 -3.18055e-015 -30.2404 -43.4845 -5.58236 -33.3232 7.45391 -56.3363 -7.79028 12.9883 -36.2674 25.2673 7.96301 26.6069 38.6532 -2.6394 48.8782 11.7924 42.8287 119.359 -0.696576 9.8903 -38.1745 25.2559 -12.0422 -4.83501 -10.8066 39.3805 22.0669 -11.2864 16.3856 2.24953 -3.71649 -13.1722 -4.76816 
-122.404 90.7968 -47.8909 -14.6941 -7.28944 -70.2044 -7.42469 -7.84194 8.98903 -19.528 42.0388 32.2194 80.4971 42.335 -40.7598 -102.445 -59.4653 -33.4247 -0.495482 11.6042 0.629591 1.52877 23.3046 0.461005 -5.2363 -12.5769 44.3928 -7.95139e-016 1.78906e-015 -0 -28.0393 -35.4446 -10.3032 -30.8518 -14.6571 -50.2437 -10.6403 13.9956 -36.0299 26.6186 8.79223 28.1483 37.2896 -3.40406 49.0276 13.8205 44.486 115.35 -1.27067 10.0503 -35.7818 25.7889 -9.78213 -8.88556 -10.1718 35.6654 28.1608 -9.38609 14.7567 1.72663 -1.78144 -6.74008 0.440938 
-122.813 89.8137 -47.1411 -15.4528 -7.58953 -68.7222 -6.95368 -6.22685 10.2256 -17.369 43.5142 27.8327 76.7181 43.7643 -39.3935 -109.336 -56.6552 -42.7266 -0.655012 11.3923 -0.705666 1.95375 22.7913 -2.48395 -5.29457 -10.8687 47.3745 -0 0 6.36111e-015 -24.5719 -28.5972 -15.2553 -26.9097 -36.1089 -41.463 -13.174 14.739 -34.7532 28.987 9.80513 29.1592 34.9241 -3.8989 48.8862 16.1555 45.5499 111.667 -1.53713 10.1058 -33.3064 25.816 -8.48793 -11.7632 -8.35564 32.6791 30.0236 -8.74859 14.6534 1.59461 -0.844781 -2.40275 3.89867 
